<svg xmlns="http://www.w3.org/2000/svg" xmlns:xlink="http://www.w3.org/1999/xlink" version="1.1" data-diagram-type="DESCRIPTION" style="width:2663px;height:737px;background:#FFFFFF;" width="2663px" height="737px" viewBox="0 0 2663 737" zoomAndPan="magnify" preserveAspectRatio="none" contentStyleType="text/css"><?plantuml 1.2026.8?><defs/><g font-family="sans-serif" lengthAdjust="spacing"><g class="title" data-source-line="2"><text x="1197.676" y="22.995" fill="#000" font-size="14" textLength="261.338" font-weight="700">Platform Abstraction Layer (PAL)</text></g><!--cluster STACK--><g class="cluster" data-qualified-name="STACK" id="ent0001" data-source-line="18"><path d="M11,43.297 L192.452,43.297 A7.5,7.5 0 0 1 197.452,48.297 L204.452,65.594 L326,65.594 A5,5 0 0 1 331,70.594 L331,298.297 A5,5 0 0 1 326,303.297 L11,303.297 A5,5 0 0 1 6,298.297 L6,48.297 A5,5 0 0 1 11,43.297" style="stroke:#9E9E9E;stroke-width:1.5;" fill="#E8EAF6"/><line x1="6" y1="65.594" x2="204.452" y2="65.594" style="stroke:#9E9E9E;stroke-width:1.5;"/><text x="10" y="58.292" fill="#000" font-size="14" textLength="185.452" font-weight="700">SOME/IP Protocol Stack</text></g><!--cluster PAL--><g class="cluster" data-qualified-name="PAL" id="ent0006" data-source-line="25"><path d="M376,173.297 L585.65,173.297 A7.5,7.5 0 0 1 590.65,178.297 L597.65,195.594 L1139,195.594 A5,5 0 0 1 1144,200.594 L1144,554.297 A5,5 0 0 1 1139,559.297 L376,559.297 A5,5 0 0 1 371,554.297 L371,178.297 A5,5 0 0 1 376,173.297" style="stroke:#9E9E9E;stroke-width:1.5;" fill="#E0F2F1"/><line x1="371" y1="195.594" x2="597.65" y2="195.594" style="stroke:#9E9E9E;stroke-width:1.5;"/><text x="375" y="188.292" fill="#000" font-size="14" textLength="213.65" font-weight="700">Platform Abstraction Layer</text></g><!--cluster BE--><g class="cluster" data-qualified-name="BE" id="ent0012" data-source-line="41"><path d="M1189,343.297 L1333.818,343.297 A7.5,7.5 0 0 1 1338.818,348.297 L1345.818,365.594 L2378,365.594 A5,5 0 0 1 2383,370.594 L2383,717.297 A5,5 0 0 1 2378,722.297 L1189,722.297 A5,5 0 0 1 1184,717.297 L1184,348.297 A5,5 0 0 1 1189,343.297" style="stroke:#9E9E9E;stroke-width:1.5;" fill="#FFF3E0"/><line x1="1184" y1="365.594" x2="1345.818" y2="365.594" style="stroke:#9E9E9E;stroke-width:1.5;"/><text x="1188" y="358.292" fill="#000" font-size="14" textLength="148.818" font-weight="700">Platform Backends</text></g><!--cluster RTB--><g class="cluster" data-qualified-name="BE.RTB" id="ent0013" data-source-line="42"><path d="M1651,394.297 L1900.162,394.297 A7.5,7.5 0 0 1 1905.162,399.297 L1912.162,432.891 L2346,432.891 A5,5 0 0 1 2351,437.891 L2351,685.297 A5,5 0 0 1 2346,690.297 L1651,690.297 A5,5 0 0 1 1646,685.297 L1646,399.297 A5,5 0 0 1 1651,394.297" style="stroke:#9E9E9E;stroke-width:1.5;" fill="#E8F5E9"/><line x1="1646" y1="432.891" x2="1912.162" y2="432.891" style="stroke:#9E9E9E;stroke-width:1.5;"/><text x="1700.627" y="409.292" fill="#000" font-size="14" textLength="151.908" font-weight="700">Runtime &amp; Memory</text><text x="1650" y="425.589" fill="#000" font-size="14" textLength="253.162" font-weight="700">(SOMEIP_THREADING_IMPL_DIR)</text></g><!--cluster CMB--><g class="cluster" data-qualified-name="BE.CMB" id="ent0019" data-source-line="49"><path d="M1229,402.297 L1483.918,402.297 A7.5,7.5 0 0 1 1488.918,407.297 L1495.918,440.891 L1617,440.891 A5,5 0 0 1 1622,445.891 L1622,677.297 A5,5 0 0 1 1617,682.297 L1229,682.297 A5,5 0 0 1 1224,677.297 L1224,407.297 A5,5 0 0 1 1229,402.297" style="stroke:#9E9E9E;stroke-width:1.5;" fill="#E3F2FD"/><line x1="1224" y1="440.891" x2="1495.918" y2="440.891" style="stroke:#9E9E9E;stroke-width:1.5;"/><text x="1228" y="417.292" fill="#000" font-size="14" textLength="258.918" font-weight="700">Communication &amp; Data Encoding</text><text x="1261.705" y="433.589" fill="#000" font-size="14" textLength="191.509" font-weight="700">(SOMEIP_NET_IMPL_DIR)</text></g><!--entity T--><g class="entity" data-qualified-name="STACK.T" id="ent0002" data-source-line="19"><rect x="30" y="94.797" width="107.751" height="46.297" fill="#E3F2FD" style="stroke:#1565C0;stroke-width:0.5;" rx="5" ry="5"/><rect x="117.751" y="99.797" width="15" height="10" fill="#E3F2FD" style="stroke:#1565C0;stroke-width:0.5;"/><rect x="115.751" y="101.797" width="4" height="2" fill="#E3F2FD" style="stroke:#1565C0;stroke-width:0.5;"/><rect x="115.751" y="105.797" width="4" height="2" fill="#E3F2FD" style="stroke:#1565C0;stroke-width:0.5;"/><text x="45" y="127.792" fill="#000" font-size="14" textLength="67.751">Transport</text></g><!--entity SD--><g class="entity" data-qualified-name="STACK.SD" id="ent0003" data-source-line="20"><rect x="173.5" y="86.297" width="109.166" height="62.594" fill="#E3F2FD" style="stroke:#1565C0;stroke-width:0.5;" rx="5" ry="5"/><rect x="262.666" y="91.297" width="15" height="10" fill="#E3F2FD" style="stroke:#1565C0;stroke-width:0.5;"/><rect x="260.666" y="93.297" width="4" height="2" fill="#E3F2FD" style="stroke:#1565C0;stroke-width:0.5;"/><rect x="260.666" y="97.297" width="4" height="2" fill="#E3F2FD" style="stroke:#1565C0;stroke-width:0.5;"/><text x="188.5" y="119.292" fill="#000" font-size="14" textLength="51.741">Service</text><text x="188.5" y="135.589" fill="#000" font-size="14" textLength="69.166">Discovery</text></g><!--entity TP--><g class="entity" data-qualified-name="STACK.TP" id="ent0004" data-source-line="21"><rect x="30" y="216.297" width="107.751" height="62.594" fill="#E3F2FD" style="stroke:#1565C0;stroke-width:0.5;" rx="5" ry="5"/><rect x="117.751" y="221.297" width="15" height="10" fill="#E3F2FD" style="stroke:#1565C0;stroke-width:0.5;"/><rect x="115.751" y="223.297" width="4" height="2" fill="#E3F2FD" style="stroke:#1565C0;stroke-width:0.5;"/><rect x="115.751" y="227.297" width="4" height="2" fill="#E3F2FD" style="stroke:#1565C0;stroke-width:0.5;"/><text x="45" y="249.292" fill="#000" font-size="14" textLength="67.751">Transport</text><text x="45" y="265.589" fill="#000" font-size="14" textLength="56.971">Protocol</text></g><!--entity CS--><g class="entity" data-qualified-name="STACK.CS" id="ent0005" data-source-line="22"><rect x="173" y="216.297" width="126.249" height="62.594" fill="#E3F2FD" style="stroke:#1565C0;stroke-width:0.5;" rx="5" ry="5"/><rect x="279.249" y="221.297" width="15" height="10" fill="#E3F2FD" style="stroke:#1565C0;stroke-width:0.5;"/><rect x="277.249" y="223.297" width="4" height="2" fill="#E3F2FD" style="stroke:#1565C0;stroke-width:0.5;"/><rect x="277.249" y="227.297" width="4" height="2" fill="#E3F2FD" style="stroke:#1565C0;stroke-width:0.5;"/><text x="188" y="249.292" fill="#000" font-size="14" textLength="48.077">Core &amp;</text><text x="188" y="265.589" fill="#000" font-size="14" textLength="86.249">Serialization</text></g><!--entity RT--><g class="entity" data-qualified-name="PAL.RT" id="ent0007" data-source-line="26"><rect x="395.5" y="216.297" width="243.171" height="62.594" fill="#E3F2FD" style="stroke:#1565C0;stroke-width:0.5;" rx="5" ry="5"/><rect x="618.671" y="221.297" width="15" height="10" fill="#E3F2FD" style="stroke:#1565C0;stroke-width:0.5;"/><rect x="616.671" y="223.297" width="4" height="2" fill="#E3F2FD" style="stroke:#1565C0;stroke-width:0.5;"/><rect x="616.671" y="227.297" width="4" height="2" fill="#E3F2FD" style="stroke:#1565C0;stroke-width:0.5;"/><text x="410.5" y="249.292" fill="#000" font-size="14" textLength="59.104">Runtime</text><text x="410.5" y="265.589" fill="#000" font-size="14" textLength="203.171">Threading &amp; Synchronization</text></g><!--entity CM--><g class="entity" data-qualified-name="PAL.CM" id="ent0008" data-source-line="27"><rect x="673.5" y="216.297" width="216.545" height="62.594" fill="#E3F2FD" style="stroke:#1565C0;stroke-width:0.5;" rx="5" ry="5"/><rect x="870.045" y="221.297" width="15" height="10" fill="#E3F2FD" style="stroke:#1565C0;stroke-width:0.5;"/><rect x="868.045" y="223.297" width="4" height="2" fill="#E3F2FD" style="stroke:#1565C0;stroke-width:0.5;"/><rect x="868.045" y="227.297" width="4" height="2" fill="#E3F2FD" style="stroke:#1565C0;stroke-width:0.5;"/><text x="688.5" y="249.292" fill="#000" font-size="14" textLength="110.346">Communication</text><text x="688.5" y="265.589" fill="#000" font-size="14" textLength="176.545">Socket API &amp; Network I/O</text></g><!--entity MM--><g class="entity" data-qualified-name="PAL.MM" id="ent0009" data-source-line="28"><rect x="925.5" y="216.297" width="174.825" height="62.594" fill="#E3F2FD" style="stroke:#1565C0;stroke-width:0.5;" rx="5" ry="5"/><rect x="1080.325" y="221.297" width="15" height="10" fill="#E3F2FD" style="stroke:#1565C0;stroke-width:0.5;"/><rect x="1078.325" y="223.297" width="4" height="2" fill="#E3F2FD" style="stroke:#1565C0;stroke-width:0.5;"/><rect x="1078.325" y="227.297" width="4" height="2" fill="#E3F2FD" style="stroke:#1565C0;stroke-width:0.5;"/><text x="940.5" y="249.292" fill="#000" font-size="14" textLength="56.937">Memory</text><text x="940.5" y="265.589" fill="#000" font-size="14" textLength="134.825">Message Allocation</text></g><!--entity DE--><g class="entity" data-qualified-name="PAL.DE" id="ent0010" data-source-line="29"><rect x="417" y="453.297" width="200.016" height="62.594" fill="#E3F2FD" style="stroke:#1565C0;stroke-width:0.5;" rx="5" ry="5"/><rect x="597.016" y="458.297" width="15" height="10" fill="#E3F2FD" style="stroke:#1565C0;stroke-width:0.5;"/><rect x="595.016" y="460.297" width="4" height="2" fill="#E3F2FD" style="stroke:#1565C0;stroke-width:0.5;"/><rect x="595.016" y="464.297" width="4" height="2" fill="#E3F2FD" style="stroke:#1565C0;stroke-width:0.5;"/><text x="432" y="486.292" fill="#000" font-size="14" textLength="102.396">Data Encoding</text><text x="432" y="502.589" fill="#000" font-size="14" textLength="160.016">Byte-Order Conversion</text></g><g class="entity" data-qualified-name="PAL.PAL_NOTE" id="ent0011" data-source-line="32"><path d="M652,439.297 L652,530.094 A5,5 0 0 0 657,535.094 L875.264,535.094 A5,5 0 0 0 880.264,530.094 L880.264,444.297 L870.264,434.297 L657,434.297 A5,5 0 0 0 652,439.297" style="stroke:#181818;stroke-width:0.5;" fill="#FEFFDD"/><path d="M870.264,434.297 L870.264,441.797 A2.5,2.5 0 0 0 872.764,444.297 L880.264,444.297 L870.264,434.297" style="stroke:#181818;stroke-width:1;" fill="#FEFFDD"/><text x="658" y="451.364" fill="#000" font-size="13" textLength="207.264">Public dispatch headers contain</text><text x="658" y="466.497" fill="#000" font-size="13" textLength="152.325">only common code and</text><text x="658" y="481.629" fill="#000" font-size="13" textLength="12.403">1.</text><text x="674.536" y="481.629" fill="#000" font-size="13" textLength="120.834">include "*_impl.h".</text><text x="658" y="496.762" fill="#000" font-size="13" textLength="201.703">CMake selects the backend via</text><text x="658" y="511.895" fill="#000" font-size="13" textLength="172.275">include-path at build time.</text><text x="658" y="527.028" fill="#000" font-size="13" textLength="181.784">No #ifdef in public headers.</text></g><!--entity P1--><g class="entity" data-qualified-name="BE.RTB.P1" id="ent0014" data-source-line="43"><rect x="1662.5" y="445.297" width="206.92" height="78.891" fill="#E3F2FD" style="stroke:#1565C0;stroke-width:0.5;" rx="5" ry="5"/><rect x="1849.42" y="450.297" width="15" height="10" fill="#E3F2FD" style="stroke:#1565C0;stroke-width:0.5;"/><rect x="1847.42" y="452.297" width="4" height="2" fill="#E3F2FD" style="stroke:#1565C0;stroke-width:0.5;"/><rect x="1847.42" y="456.297" width="4" height="2" fill="#E3F2FD" style="stroke:#1565C0;stroke-width:0.5;"/><text x="1677.5" y="478.292" fill="#000" font-size="14" textLength="42.068">POSIX</text><text x="1677.5" y="494.589" fill="#000" font-size="14" textLength="166.92">std::thread / std::mutex</text><text x="1677.5" y="510.886" fill="#000" font-size="14" textLength="125.043">std::make_shared</text></g><!--entity W1--><g class="entity" data-qualified-name="BE.RTB.W1" id="ent0015" data-source-line="44"><rect x="1904.5" y="445.297" width="165.043" height="78.891" fill="#E3F2FD" style="stroke:#1565C0;stroke-width:0.5;" rx="5" ry="5"/><rect x="2049.543" y="450.297" width="15" height="10" fill="#E3F2FD" style="stroke:#1565C0;stroke-width:0.5;"/><rect x="2047.543" y="452.297" width="4" height="2" fill="#E3F2FD" style="stroke:#1565C0;stroke-width:0.5;"/><rect x="2047.543" y="456.297" width="4" height="2" fill="#E3F2FD" style="stroke:#1565C0;stroke-width:0.5;"/><text x="1919.5" y="478.292" fill="#000" font-size="14" textLength="44.42">Win32</text><text x="1919.5" y="494.589" fill="#000" font-size="14" textLength="123.348">C++11 threading</text><text x="1919.5" y="510.886" fill="#000" font-size="14" textLength="125.043">std::make_shared</text></g><!--entity FR--><g class="entity" data-qualified-name="BE.RTB.FR" id="ent0016" data-source-line="45"><rect x="2105" y="445.297" width="229.957" height="78.891" fill="#E3F2FD" style="stroke:#1565C0;stroke-width:0.5;" rx="5" ry="5"/><rect x="2314.957" y="450.297" width="15" height="10" fill="#E3F2FD" style="stroke:#1565C0;stroke-width:0.5;"/><rect x="2312.957" y="452.297" width="4" height="2" fill="#E3F2FD" style="stroke:#1565C0;stroke-width:0.5;"/><rect x="2312.957" y="456.297" width="4" height="2" fill="#E3F2FD" style="stroke:#1565C0;stroke-width:0.5;"/><text x="2120" y="478.292" fill="#000" font-size="14" textLength="69.221">FreeRTOS</text><text x="2120" y="494.589" fill="#000" font-size="14" textLength="189.957">xTaskCreate / xSemaphore</text><text x="2120" y="510.886" fill="#000" font-size="14" textLength="72.796">static pool</text></g><!--entity TX--><g class="entity" data-qualified-name="BE.RTB.TX" id="ent0017" data-source-line="46"><rect x="1668.5" y="595.297" width="195.046" height="78.891" fill="#E3F2FD" style="stroke:#1565C0;stroke-width:0.5;" rx="5" ry="5"/><rect x="1843.546" y="600.297" width="15" height="10" fill="#E3F2FD" style="stroke:#1565C0;stroke-width:0.5;"/><rect x="1841.546" y="602.297" width="4" height="2" fill="#E3F2FD" style="stroke:#1565C0;stroke-width:0.5;"/><rect x="1841.546" y="606.297" width="4" height="2" fill="#E3F2FD" style="stroke:#1565C0;stroke-width:0.5;"/><text x="1683.5" y="628.292" fill="#000" font-size="14" textLength="58.851">ThreadX</text><text x="1683.5" y="644.589" fill="#000" font-size="14" textLength="155.046">tx_thread / TX_MUTEX</text><text x="1683.5" y="660.886" fill="#000" font-size="14" textLength="117.804">TX_BLOCK_POOL</text></g><!--entity ZR--><g class="entity" data-qualified-name="BE.RTB.ZR" id="ent0018" data-source-line="47"><rect x="1898.5" y="595.297" width="174.928" height="78.891" fill="#E3F2FD" style="stroke:#1565C0;stroke-width:0.5;" rx="5" ry="5"/><rect x="2053.428" y="600.297" width="15" height="10" fill="#E3F2FD" style="stroke:#1565C0;stroke-width:0.5;"/><rect x="2051.428" y="602.297" width="4" height="2" fill="#E3F2FD" style="stroke:#1565C0;stroke-width:0.5;"/><rect x="2051.428" y="606.297" width="4" height="2" fill="#E3F2FD" style="stroke:#1565C0;stroke-width:0.5;"/><text x="1913.5" y="628.292" fill="#000" font-size="14" textLength="50.005">Zephyr</text><text x="1913.5" y="644.589" fill="#000" font-size="14" textLength="134.928">k_thread / k_mutex</text><text x="1913.5" y="660.886" fill="#000" font-size="14" textLength="86.646">k_mem_slab</text></g><!--entity P2--><g class="entity" data-qualified-name="BE.CMB.P2" id="ent0020" data-source-line="50"><rect x="1267" y="453.297" width="128.375" height="62.594" fill="#E3F2FD" style="stroke:#1565C0;stroke-width:0.5;" rx="5" ry="5"/><rect x="1375.375" y="458.297" width="15" height="10" fill="#E3F2FD" style="stroke:#1565C0;stroke-width:0.5;"/><rect x="1373.375" y="460.297" width="4" height="2" fill="#E3F2FD" style="stroke:#1565C0;stroke-width:0.5;"/><rect x="1373.375" y="464.297" width="4" height="2" fill="#E3F2FD" style="stroke:#1565C0;stroke-width:0.5;"/><text x="1282" y="486.292" fill="#000" font-size="14" textLength="88.375">BSD Sockets</text><text x="1282" y="502.589" fill="#000" font-size="14" textLength="42.068">POSIX</text></g><!--entity W2--><g class="entity" data-qualified-name="BE.CMB.W2" id="ent0021" data-source-line="51"><rect x="1430" y="453.297" width="98.27" height="62.594" fill="#E3F2FD" style="stroke:#1565C0;stroke-width:0.5;" rx="5" ry="5"/><rect x="1508.27" y="458.297" width="15" height="10" fill="#E3F2FD" style="stroke:#1565C0;stroke-width:0.5;"/><rect x="1506.27" y="460.297" width="4" height="2" fill="#E3F2FD" style="stroke:#1565C0;stroke-width:0.5;"/><rect x="1506.27" y="464.297" width="4" height="2" fill="#E3F2FD" style="stroke:#1565C0;stroke-width:0.5;"/><text x="1445" y="486.292" fill="#000" font-size="14" textLength="58.27">Winsock</text><text x="1445" y="502.589" fill="#000" font-size="14" textLength="44.42">Win32</text></g><!--entity LW--><g class="entity" data-qualified-name="BE.CMB.LW" id="ent0022" data-source-line="52"><rect x="1240" y="603.297" width="181.688" height="62.594" fill="#E3F2FD" style="stroke:#1565C0;stroke-width:0.5;" rx="5" ry="5"/><rect x="1401.688" y="608.297" width="15" height="10" fill="#E3F2FD" style="stroke:#1565C0;stroke-width:0.5;"/><rect x="1399.688" y="610.297" width="4" height="2" fill="#E3F2FD" style="stroke:#1565C0;stroke-width:0.5;"/><rect x="1399.688" y="614.297" width="4" height="2" fill="#E3F2FD" style="stroke:#1565C0;stroke-width:0.5;"/><text x="1255" y="636.292" fill="#000" font-size="14" textLength="27.911">lwIP</text><text x="1255" y="652.589" fill="#000" font-size="14" textLength="141.688">FreeRTOS / ThreadX</text></g><!--entity ZS--><g class="entity" data-qualified-name="BE.CMB.ZS" id="ent0023" data-source-line="53"><rect x="1457.5" y="603.297" width="149.108" height="62.594" fill="#E3F2FD" style="stroke:#1565C0;stroke-width:0.5;" rx="5" ry="5"/><rect x="1586.608" y="608.297" width="15" height="10" fill="#E3F2FD" style="stroke:#1565C0;stroke-width:0.5;"/><rect x="1584.608" y="610.297" width="4" height="2" fill="#E3F2FD" style="stroke:#1565C0;stroke-width:0.5;"/><rect x="1584.608" y="614.297" width="4" height="2" fill="#E3F2FD" style="stroke:#1565C0;stroke-width:0.5;"/><text x="1472.5" y="636.292" fill="#000" font-size="14" textLength="109.108">Zephyr Sockets</text><text x="1472.5" y="652.589" fill="#000" font-size="14" textLength="65.611">zsock API</text></g><g class="entity" data-qualified-name="GMN26" id="ent0027" data-source-line="61"><path d="M2407,446.797 L2407,522.461 A5,5 0 0 0 2412,527.461 L2643.689,527.461 A5,5 0 0 0 2648.689,522.461 L2648.689,451.797 L2638.689,441.797 L2412,441.797 A5,5 0 0 0 2407,446.797" style="stroke:#181818;stroke-width:0.5;" fill="#FEFFDD"/><path d="M2638.689,441.797 L2638.689,449.297 A2.5,2.5 0 0 0 2641.189,451.797 L2648.689,451.797 L2638.689,441.797" style="stroke:#181818;stroke-width:1;" fill="#FEFFDD"/><text x="2413" y="458.864" fill="#000" font-size="13" textLength="185.517">Only one backend per group</text><text x="2413" y="473.997" fill="#000" font-size="13" textLength="119.99">is active per build.</text><text x="2413" y="489.129" fill="#000" font-size="13" textLength="185.39">The two groups are selected</text><text x="2413" y="504.262" fill="#000" font-size="13" textLength="186.564">independently, enabling e.g.</text><text x="2413" y="519.395" fill="#000" font-size="13" textLength="220.689">FreeRTOS threads + lwIP sockets.</text></g><!--link STACK to PAL--><g class="link" data-entity-1="ent0001" data-entity-2="ent0006" id="lnk24" data-source-line="57" data-link-type="dependency"><path d="M331.435,118.912 C332.123,118.922 332.85,118.933 333.617,118.944 C339.752,119.032 348.412,119.161 359.242,119.332 C380.901,119.675 411.241,120.187 447.424,120.886 C519.79,122.284 615.528,124.429 711.944,127.457 C904.775,133.512 1100.315,143.097 1117,157.297 C1120.811,160.539 1123.972,164.339 1126.585,168.51 C1127.238,169.552 1127.857,170.618 1128.444,171.704 C1128.59,171.976 1128.735,172.249 1128.877,172.523 C1128.949,172.66 1126.746,190.641 1126.816,190.778" style="stroke:#181818;stroke-width:1;" fill="none" id="STACK-to-PAL"/><polygon points="1129.09,195.231,1128.56,185.397,1126.816,190.778,1121.435,189.035,1129.09,195.231" fill="#181818" style="stroke:#181818;stroke-width:1;stroke-linejoin:miter;stroke-miterlimit:10;"/></g><!--link PAL to BE--><g class="link" data-entity-1="ent0006" data-entity-2="ent0012" id="lnk25" data-source-line="58" data-link-type="dependency"><path d="M1144.162,283.045 C1144.24,283.372 1144.319,283.702 1144.398,284.033 C1144.555,284.695 1144.715,285.364 1144.876,286.04 C1150.031,307.672 1156.841,336.253 1163.677,364.942 C1170.514,393.631 1177.376,422.427 1182.633,444.488 C1182.961,445.867 1183.284,447.22 1183.599,448.544 C1183.678,448.876 1183.757,449.205 1183.835,449.533 C1183.874,449.696 1182.754,444.996 1182.793,445.159" style="stroke:#181818;stroke-width:1;" fill="none" id="PAL-to-BE"/><polygon points="1183.952,450.023,1185.756,440.341,1182.793,445.159,1177.974,442.195,1183.952,450.023" fill="#181818" style="stroke:#181818;stroke-width:1;stroke-linejoin:miter;stroke-miterlimit:10;"/></g><!--link BE to GMN26--><g class="link" data-entity-1="ent0012" data-entity-2="ent0027" id="lnk28" data-source-line="61" data-link-type="association"><path d="M1211.762,342.876 C1211.903,342.653 1212.046,342.43 1212.189,342.208 C1213.334,340.43 1214.533,338.688 1215.788,336.986 C1218.297,333.583 1221.028,330.342 1224,327.297 C1229.57,321.587 1233.57,324.187 1241.5,323.297 C1271.64,319.897 2303.36,319.897 2333.5,323.297 C2405.68,331.437 2465.82,396.557 2499.33,441.567" style="stroke:#181818;stroke-width:1;stroke-dasharray:7,7;" fill="none" id="BE-GMN26"/></g><?plantuml-src TLNRRjiu47ttLmnIe6YRpSK9KhHzMC2MvLsZjYLOAX9qjH1eYRO8IwH0qadSHVzzXwHaExv8Bp8vS-PovemrqoM5i2Hw8MG5lRdIacIQ2GvZig4IFeIzySTEHwqOhuaa5Sn9jbfAiUQv9qeXuTtGFdiMgY2vU65y2GjIAhftOzqo8Ja2Ts_tKMj49KiA_tK0d_vHZ0VpkZiXSogRyw--UJk_zw4oKTM2KwxFWVdtmxlXu1Yi-_3vmRirO6qs5r4myMz68OHIQ9694YADLnT054Hnp_kEO5_ytl1p4seN-fzO4gvg8VM_nZW-l8weV6OPJVY0gKmyKxcnTj7WB4x2soGSOdXewGb9uNt24PgHalqYXaLhwqLlYZhFjYqC2SUoRh57tUEoPckkMOLvnuMa93SaluTemxD22huVSnOVvrTLQyuoQuDfYcn5DVJ24I9CgNuHSWMZcy1bF3dqdj1Ao4t29rGfKqMlB4Ms2pSvSXWGJS3dcJ199ho_qVGgC6o39pWsNBMk0xzZVRdGjAa_dGQnRm_D4wxd9SiWPwecEYkWmCBH7uDnJHZVsWbURam65ROJmo8OpxUNxnZFoZKUNdnAMLMNryN5zVRIcv0L1KLBcca5kg1MPPJdyCp8rgf1kC8i2Y0QvcjMvc3es25D1KPQv7I1rb2xn9jydP41DPMUdeY-2wli8FHzA-vx_xQPWwrzCmL8N4lB1wEKKPZ6Vy_ytc0q_IiTJS9nEXZDFbwuSUWRhGmV_AyDs05TOH2DdXAkTFxjcxQp1JTWVrLhJL-RcmhxbE9-aJItt8NTKrYFZD_V9ToxlEnsGRU3UWRYyIJ4K58wYuCeuQynKIiFCN0wRk0reXMf2vIQWSFvow0MZII7irD8JYXOcdvDjuN5J-daH-pZANxrnu7tFGs3OEoK_NGAvYUjYurC-6e7iagRrk07hL9Laha5-Edo-FsMipVoG-OEzD4IEFNZ0-gyIR_TcQUfwqS3S6fMkAGCZuwRkpFSABHDk2N9CN3Ii7mPXGblUJ0zSusqBkF7yptQvVBBH38RnhKbQjg2a--MznN-JV6hFutYEsRhjR_xk17iDf1iMMWG2tDYV0EZS0osbMUDwyJyjzJscYams_IPsdChJoUw61MD2ywPef5inKxTWc0yfpNYOHNbvW_KA47Xucgbrqi7i6s38r_19PZ-W7AbNdUsiluV?></g></svg>